<svg width="16" height="16" viewBox="0 0 16 16" fill="none" xmlns="http://www.w3.org/2000/svg">
    <path d="M4 9.77778C4 9.77778 5.33333 10.2222 8 10.2222C10.6667 10.2222 12 9.77778 12 9.77778C12 9.77778 11.1111 11.5556 8 11.5556C4.88889 11.5556 4 9.77778 4 9.77778Z" fill="currentColor"></path>
    <path fill-rule="evenodd" clip-rule="evenodd" d="M16 8C16 12.4184 12.4183 16 8 16C3.58171 16 0 12.4184 0 8C0 3.5816 3.58171 0 8 0C12.4183 0 16 3.5816 16 8ZM8 9.33377C6.38976 9.33377 5.32134 9.14627 4 8.88932C3.69824 8.83116 3.11111 8.88932 3.11111 9.77821C3.11111 11.556 5.15332 13.7782 8 13.7782C10.8462 13.7782 12.8889 11.556 12.8889 9.77821C12.8889 8.88932 12.3018 8.83073 12 8.88932C10.6787 9.14627 9.61024 9.33377 8 9.33377ZM5.33333 7.55556C5.94699 7.55556 6.44444 6.85894 6.44444 6C6.44444 5.14106 5.94699 4.44444 5.33333 4.44444C4.71967 4.44444 4.22222 5.14106 4.22222 6C4.22222 6.85894 4.71967 7.55556 5.33333 7.55556ZM11.7778 6C11.7778 6.85894 11.2803 7.55556 10.6667 7.55556C10.053 7.55556 9.55556 6.85894 9.55556 6C9.55556 5.14106 10.053 4.44444 10.6667 4.44444C11.2803 4.44444 11.7778 5.14106 11.7778 6Z" fill="currentColor"></path>
</svg>
